<?xml version="1.0" encoding="utf-8"?>
<!-- Generator: Adobe Illustrator 16.0.0, SVG Export Plug-In . SVG Version: 6.00 Build 0)  -->
<!DOCTYPE svg PUBLIC "-//W3C//DTD SVG 1.1//EN" "http://www.w3.org/Graphics/SVG/1.1/DTD/svg11.dtd">
<svg version="1.1" id="Layer_1" xmlns="http://www.w3.org/2000/svg" xmlns:xlink="http://www.w3.org/1999/xlink" x="0px" y="0px"
	 width="140px" height="70px" viewBox="0 0 140 70" enable-background="new 0 0 140 70" xml:space="preserve">
<g>
	<g>
		<path fill="#F2F2F2" stroke="#231F20" stroke-miterlimit="10" d="M63.999,35.344c0,16.012-12.984,28.998-28.999,28.998
			c-16.012,0-28.999-12.986-28.999-28.998C6.001,19.329,18.988,6.342,35,6.342C51.015,6.342,63.999,19.329,63.999,35.344z"/>
		<g>
			<path fill="#010101" d="M27.085,27.774c0.405-1.045,0.974-1.948,1.705-2.713c0.73-0.768,1.611-1.365,2.645-1.793
				c1.031-0.43,2.187-0.646,3.461-0.646c1.647,0,3.021,0.227,4.123,0.68s1.991,1.017,2.662,1.688
				c0.674,0.674,1.155,1.399,1.444,2.175c0.292,0.779,0.436,1.504,0.436,2.175c0,1.113-0.144,2.031-0.436,2.75
				c-0.289,0.719-0.648,1.334-1.079,1.844c-0.428,0.51-0.903,0.946-1.425,1.305c-0.523,0.36-1.016,0.719-1.48,1.08
				c-0.465,0.359-0.875,0.77-1.234,1.234c-0.36,0.465-0.587,1.045-0.68,1.738v1.322h-4.696v-1.566
				c0.068-0.996,0.26-1.832,0.572-2.502c0.314-0.674,0.68-1.25,1.096-1.725c0.419-0.473,0.858-0.886,1.322-1.235
				c0.464-0.348,0.895-0.697,1.289-1.042c0.394-0.348,0.714-0.73,0.958-1.15c0.242-0.416,0.354-0.94,0.33-1.566
				c0-1.068-0.26-1.855-0.783-2.365c-0.521-0.513-1.246-0.768-2.176-0.768c-0.625,0-1.164,0.122-1.617,0.365
				c-0.453,0.244-0.824,0.569-1.113,0.975c-0.292,0.408-0.507,0.883-0.646,1.427c-0.139,0.546-0.207,1.13-0.207,1.758h-5.118
				C26.462,29.966,26.677,28.819,27.085,27.774z M37.506,42.703v5.357h-5.462v-5.357H37.506z"/>
		</g>
	</g>
	<g>
		<path fill="#989898" d="M134.621,35.002c0,16.354-13.262,29.621-29.619,29.621S75.379,51.355,75.379,35.002
			c0-16.359,13.266-29.625,29.623-29.625S134.621,18.643,134.621,35.002z"/>
		<g>
			<path fill="#FFFFFF" d="M96.859,30.683c0-1.304,0.199-2.488,0.588-3.555c0.391-1.068,0.961-1.979,1.707-2.736
				s1.645-1.345,2.703-1.759c1.051-0.416,2.232-0.625,3.533-0.625c1.092,0,2.104,0.162,3.041,0.48
				c0.934,0.321,1.752,0.784,2.453,1.389c0.695,0.602,1.248,1.356,1.65,2.256s0.605,1.917,0.605,3.058
				c0,0.827-0.09,1.545-0.266,2.149c-0.18,0.604-0.418,1.126-0.713,1.565c-0.295,0.437-0.633,0.83-1.012,1.171
				c-0.379,0.344-0.758,0.683-1.137,1.013c-0.451,0.381-0.865,0.749-1.244,1.101c-0.383,0.355-0.711,0.756-0.994,1.191
				c-0.287,0.441-0.506,0.955-0.66,1.551c-0.154,0.588-0.232,1.311-0.232,2.166h-3.838c0-1.043,0.055-1.926,0.162-2.648
				c0.104-0.723,0.277-1.355,0.514-1.904c0.236-0.543,0.527-1.022,0.871-1.437c0.342-0.417,0.752-0.824,1.229-1.227
				c0.377-0.333,0.738-0.642,1.08-0.926c0.344-0.283,0.654-0.599,0.926-0.94c0.273-0.344,0.486-0.729,0.639-1.157
				c0.154-0.425,0.232-0.934,0.232-1.527c0-0.712-0.125-1.322-0.373-1.832c-0.248-0.509-0.549-0.917-0.906-1.227
				c-0.355-0.307-0.734-0.532-1.139-0.674c-0.402-0.145-0.758-0.214-1.064-0.214c-1.471,0-2.555,0.48-3.254,1.438
				c-0.699,0.961-1.049,2.248-1.049,3.859H96.859z M102.514,43.549h4.76v4.443h-4.76V43.549z"/>
		</g>
	</g>
</g>
</svg>
