<?xml version="1.0" encoding="utf-8"?>
<!-- Generator: Adobe Illustrator 16.0.0, SVG Export Plug-In . SVG Version: 6.00 Build 0)  -->
<!DOCTYPE svg PUBLIC "-//W3C//DTD SVG 1.1//EN" "http://www.w3.org/Graphics/SVG/1.1/DTD/svg11.dtd">
<svg version="1.1" id="Layer_1" xmlns="http://www.w3.org/2000/svg" xmlns:xlink="http://www.w3.org/1999/xlink" x="0px" y="0px"
	 width="70px" height="70px" viewBox="0 0 70 70" enable-background="new 0 0 70 70" xml:space="preserve">
<g>
	<path d="M52.804,30.758c0-12.046-9.797-21.846-21.847-21.846c-12.043,0-21.846,9.8-21.846,21.846
		c0,12.047,9.803,21.851,21.846,21.851C43.007,52.608,52.804,42.805,52.804,30.758z M30.957,47.145
		c-9.035,0-16.382-7.348-16.382-16.387c0-9.035,7.348-16.382,16.382-16.382c9.036,0,16.389,7.348,16.389,16.382
		C47.346,39.797,39.992,47.145,30.957,47.145z"/>
	<path fill="none" d="M52.766,46.247c3.114-4.374,4.955-9.72,4.955-15.489c0-14.756-12.008-26.761-26.764-26.761
		c-14.756,0-26.764,12.005-26.764,26.761c0,14.76,12.008,26.766,26.764,26.766c5.873,0,11.311-1.906,15.727-5.128
		C49.024,50.687,51.081,48.609,52.766,46.247z M9.11,30.758c0-12.046,9.803-21.846,21.846-21.846c12.05,0,21.847,9.8,21.847,21.846
		c0,12.047-9.797,21.851-21.847,21.851C18.913,52.608,9.11,42.805,9.11,30.758z"/>
</g>
<rect x="48.489" y="39.938" transform="matrix(0.7072 -0.707 0.707 0.7072 -22.1942 52.9248)" width="8.629" height="26.642"/>
</svg>
