<?xml version="1.0" encoding="utf-8"?>
<!-- Generator: Adobe Illustrator 16.0.0, SVG Export Plug-In . SVG Version: 6.00 Build 0)  -->
<!DOCTYPE svg PUBLIC "-//W3C//DTD SVG 1.1//EN" "http://www.w3.org/Graphics/SVG/1.1/DTD/svg11.dtd">
<svg version="1.1" id="Layer_1" xmlns="http://www.w3.org/2000/svg" xmlns:xlink="http://www.w3.org/1999/xlink" x="0px" y="0px"
	 width="70px" height="70px" viewBox="0 0 70 70" enable-background="new 0 0 70 70" xml:space="preserve">
<g>
	<path fill="#FFFFFF" d="M57.957,34.914c0,12.678-10.279,22.957-22.953,22.957c-12.675,0-22.957-10.278-22.957-22.957
		c0-12.674,10.282-22.953,22.957-22.953C47.678,11.961,57.957,22.24,57.957,34.914z"/>
	<path fill="#231F20" d="M35.004,69.081c-18.84,0-34.168-15.328-34.168-34.167c0-18.835,15.328-34.164,34.168-34.164
		c18.835,0,34.16,15.328,34.16,34.164C69.164,53.753,53.84,69.081,35.004,69.081z M35.004,23.172
		c-6.48,0-11.746,5.266-11.746,11.742c0,6.48,5.266,11.746,11.746,11.746c6.472,0,11.742-5.266,11.742-11.746
		C46.746,28.438,41.477,23.172,35.004,23.172z"/>
</g>
</svg>
