<?xml version="1.0" encoding="utf-8"?>
<!-- Generator: Adobe Illustrator 16.0.0, SVG Export Plug-In . SVG Version: 6.00 Build 0)  -->
<!DOCTYPE svg PUBLIC "-//W3C//DTD SVG 1.1//EN" "http://www.w3.org/Graphics/SVG/1.1/DTD/svg11.dtd">
<svg version="1.1" id="Layer_1" xmlns="http://www.w3.org/2000/svg" xmlns:xlink="http://www.w3.org/1999/xlink" x="0px" y="0px"
	 width="70px" height="70px" viewBox="0 0 70 70" enable-background="new 0 0 70 70" xml:space="preserve">
<g>
	<path fill="#FFFFFF" d="M67.881,35c0,18.158-14.721,32.879-32.883,32.879C16.845,67.879,2.119,53.158,2.119,35
		c0-18.157,14.726-32.883,32.879-32.883C53.16,2.117,67.881,16.843,67.881,35z"/>
	<path fill="#231F20" d="M34.998,69.361C16.056,69.361,0.64,53.949,0.64,35c0-18.946,15.416-34.362,34.358-34.362
		c18.949,0,34.361,15.416,34.361,34.362C69.359,53.949,53.947,69.361,34.998,69.361z M34.998,3.595
		C17.684,3.595,3.597,17.682,3.597,35c0,17.314,14.086,31.404,31.401,31.404c17.318,0,31.408-14.09,31.408-31.404
		C66.406,17.682,52.316,3.595,34.998,3.595z"/>
</g>
</svg>
