<?xml version="1.0" encoding="utf-8"?>
<!-- Generator: Adobe Illustrator 16.0.0, SVG Export Plug-In . SVG Version: 6.00 Build 0)  -->
<!DOCTYPE svg PUBLIC "-//W3C//DTD SVG 1.1//EN" "http://www.w3.org/Graphics/SVG/1.1/DTD/svg11.dtd">
<svg version="1.1"
	 id="Layer_1" xmlns:rdf="http://www.w3.org/1999/02/22-rdf-syntax-ns#" xmlns:svg="http://www.w3.org/2000/svg" xmlns:sodipodi="http://sodipodi.sourceforge.net/DTD/sodipodi-0.dtd" xmlns:dc="http://purl.org/dc/elements/1.1/" xmlns:inkscape="http://www.inkscape.org/namespaces/inkscape" xmlns:cc="http://creativecommons.org/ns#" sodipodi:docname="mf-logo.svg" inkscape:version="0.48.2 r9819"
	 xmlns="http://www.w3.org/2000/svg" xmlns:xlink="http://www.w3.org/1999/xlink" x="0px" y="0px" width="337px" height="20px"
	 viewBox="-0.504 0 337 20" enable-background="new -0.504 0 337 20" xml:space="preserve">
<sodipodi:namedview  objecttolerance="10" borderopacity="1" bordercolor="#666666" id="namedview3131" pagecolor="#ffffff" inkscape:zoom="3.0803571" gridtolerance="10" showgrid="false" guidetolerance="10" inkscape:cx="168" inkscape:cy="17.5" inkscape:pageopacity="0" inkscape:window-width="1741" inkscape:pageshadow="2" inkscape:current-layer="Layer_1" inkscape:window-maximized="0" inkscape:window-y="0" inkscape:window-x="0" inkscape:window-height="785">
	</sodipodi:namedview>
<polygon id="polygon3081" fill="#1D1D1B" points="15.689,6.219 9.424,13.972 3.176,6.219 0.5,6.219 0.5,19.035 2.654,19.035 
	2.654,8.557 2.709,8.557 9.405,16.91 16.155,8.557 16.21,8.557 16.21,19.035 18.364,19.035 18.364,6.219 "/>
<path id="path3083" inkscape:connector-curvature="0" fill="#1D1D1B" d="M34.898,13.976h-6.624l1.854-3.312l1.468-2.622l1.442,2.594
	L34.898,13.976z M39.817,19.035L32.941,6.219H30.23l-6.876,12.815h2.353l1.507-3.131h8.745l1.507,3.131L39.817,19.035L39.817,19.035
	z"/>
<polygon id="polygon3085" fill="#1D1D1B" points="47.195,8.148 47.195,19.035 49.35,19.035 49.35,8.148 55.561,8.148 55.561,6.219 
	40.982,6.219 40.982,8.148 "/>
<g id="g3087">
	<path id="path3089" inkscape:connector-curvature="0" fill="#1D1D1B" d="M74.88,9.139c-1.707-2.176-4.291-3.326-7.487-3.326
		c-2.227,0-4.256,0.637-5.691,1.717c-1.76,1.311-2.64,3.008-2.64,5.063c0,2.088,0.862,3.805,2.604,5.098
		c1.418,1.062,3.465,1.699,5.728,1.699c3.23,0,5.512-0.867,7.396-3.045l-1.85-1.01c-1.382,1.471-3.088,2.105-5.422,2.105
		c-3.842,0-6.212-1.965-6.212-4.85c0-2.779,2.46-4.833,6.087-4.833c2.388,0,4.165,0.638,5.529,2.07L74.88,9.139z"/>
</g>
<polygon id="polygon3091" fill="#1D1D1B" points="82.258,10.639 82.258,6.219 80.103,6.219 80.103,19.035 82.258,19.035 
	82.258,12.57 92.672,12.57 92.672,19.035 94.826,19.035 94.826,6.219 92.672,6.219 92.672,10.639 "/>
<polygon id="polygon3093" fill="#1D1D1B" points="111.63,12.57 111.63,10.639 104.018,10.639 104.018,8.148 114.971,8.148 
	114.971,6.219 101.864,6.219 101.864,19.035 115.473,19.035 115.473,17.105 104.018,17.105 104.018,12.57 "/>
<g id="g3095">
	<path id="path3097" inkscape:connector-curvature="0" fill="#1D1D1B" d="M132.189,9.229l1.311-1.434
		c-1.885-1.258-4.237-1.896-7.038-1.896c-4.22,0-6.553,1.505-6.553,3.896c0,2.46,2.01,3.079,6.014,3.345
		c3.825,0.248,6.032,0.248,6.032,2.07c0,1.381-1.651,2.268-4.739,2.268c-2.37,0-4.488-0.586-6.571-1.842l-1.185,1.541
		c1.885,1.469,4.435,2.158,7.738,2.158c4.614,0,7.092-1.576,7.092-4.266c0-2.145-1.544-3.24-4.776-3.647
		c-2.64-0.336-4.775-0.176-6.194-0.672c-0.753-0.266-1.131-0.654-1.131-1.238c0-1.062,1.418-1.734,4.112-1.734
		C128.347,7.778,130.25,8.254,132.189,9.229"/>
</g>
<polygon id="polygon3099" fill="#1D1D1B" points="143.949,10.639 143.949,8.148 154.901,8.148 154.901,6.219 141.795,6.219 
	141.795,19.035 143.949,19.035 143.949,12.57 151.562,12.57 151.562,10.639 "/>
<path id="path3101" inkscape:connector-curvature="0" fill="#1D1D1B" d="M167.575,14.238h-6.626l3.322-6.196L167.575,14.238z
	 M172.494,19.035l-6.877-12.816h-2.71l-6.877,12.815h2.353l1.508-2.867h8.744l1.508,2.867L172.494,19.035L172.494,19.035z"/>
<g id="g3103">
	<path id="path3105" inkscape:connector-curvature="0" fill="#1D1D1B" d="M188.258,9.229l1.312-1.434
		c-1.887-1.258-4.236-1.896-7.037-1.896c-4.221,0-6.555,1.505-6.555,3.896c0,2.46,2.012,3.079,6.016,3.345
		c3.822,0.248,6.031,0.248,6.031,2.07c0,1.381-1.65,2.268-4.738,2.268c-2.371,0-4.488-0.586-6.569-1.842l-1.187,1.541
		c1.885,1.469,4.434,2.158,7.736,2.158c4.613,0,7.092-1.576,7.092-4.266c0-2.145-1.545-3.24-4.775-3.647
		c-2.639-0.336-4.773-0.176-6.191-0.672c-0.754-0.266-1.132-0.654-1.132-1.238c0-1.062,1.421-1.734,4.11-1.734
		C184.416,7.778,186.32,8.254,188.258,9.229"/>
</g>
<polygon id="polygon3107" fill="#1D1D1B" points="197.506,10.639 197.506,6.219 195.352,6.219 195.352,19.035 197.506,19.035 
	197.506,12.57 207.918,12.57 207.918,19.035 210.072,19.035 210.072,6.219 207.918,6.219 207.918,10.639 "/>
<rect id="rect3109" x="216.58" y="6.219" fill="#1D1D1B" width="2.154" height="12.815"/>
<g id="g3111">
	<path id="path3113" inkscape:connector-curvature="0" fill="#1D1D1B" d="M239.275,12.609c0,2.868-2.369,4.85-6.086,4.85
		c-3.734,0-6.123-1.965-6.123-4.85c0-2.797,2.496-4.85,6.123-4.85c1.635,0,3.105,0.459,4.146,1.203
		C238.629,9.902,239.275,11.122,239.275,12.609 M241.52,12.609c0-2.034-0.896-3.752-2.64-5.062c-1.437-1.08-3.481-1.733-5.69-1.733
		c-2.228,0-4.254,0.653-5.709,1.733c-1.76,1.312-2.657,3.01-2.657,5.062c0,2.09,0.881,3.787,2.622,5.08
		c1.418,1.062,3.482,1.717,5.744,1.717c2.263,0,4.272-0.638,5.709-1.697C240.641,16.414,241.52,14.699,241.52,12.609"/>
</g>
<polygon id="polygon3115" fill="#1D1D1B" points="249.236,8.521 259.182,19.035 261.84,19.035 261.84,6.219 259.684,6.219 
	259.684,16.734 249.756,6.219 247.08,6.219 247.08,19.035 249.236,19.035 "/>
<rect id="rect3117" x="267.855" y="17.106" fill="#1D1D1B" width="2.783" height="1.929"/>
<g id="g3119">
	<path id="path3121" inkscape:connector-curvature="0" fill="#1D1D1B" d="M291.145,9.139c-1.705-2.176-4.291-3.326-7.485-3.326
		c-2.228,0-4.257,0.637-5.691,1.717c-1.76,1.311-2.639,3.008-2.639,5.063c0,2.088,0.86,3.805,2.604,5.098
		c1.418,1.062,3.465,1.699,5.728,1.699c3.231,0,5.512-0.867,7.396-3.045l-1.848-1.01c-1.383,1.471-3.09,2.105-5.422,2.105
		c-3.844,0-6.213-1.965-6.213-4.85c0-2.779,2.459-4.833,6.086-4.833c2.389,0,4.166,0.638,5.529,2.07L291.145,9.139L291.145,9.139z"
		/>
	<path id="path3123" inkscape:connector-curvature="0" fill="#1D1D1B" d="M310.354,12.609c0,2.868-2.368,4.85-6.086,4.85
		c-3.733,0-6.123-1.965-6.123-4.85c0-2.797,2.496-4.85,6.123-4.85c1.634,0,3.104,0.459,4.147,1.203
		C309.707,9.902,310.354,11.122,310.354,12.609 M312.598,12.609c0-2.034-0.896-3.752-2.639-5.062
		c-1.438-1.08-3.482-1.733-5.691-1.733c-2.227,0-4.254,0.653-5.709,1.733c-1.76,1.312-2.658,3.01-2.658,5.062
		c0,2.09,0.883,3.787,2.624,5.08c1.418,1.062,3.481,1.717,5.743,1.717c2.264,0,4.273-0.638,5.709-1.697
		C311.719,16.414,312.598,14.699,312.598,12.609"/>
</g>
<polygon id="polygon3125" fill="#1D1D1B" points="332.818,6.219 326.553,13.972 320.305,6.219 317.629,6.219 317.629,19.035 
	319.783,19.035 319.783,8.557 319.838,8.557 326.533,16.91 333.285,8.557 333.338,8.557 333.338,19.035 335.492,19.035 
	335.492,6.219 "/>
</svg>
